# xmcd
#
# Track frame offsets:
#	150
#	13122
#	30124
#	40452
#	51618
#	68458
#	87464
#	101980
#	120894
#	132936
#	149871
#	167709
#	181818
#	198452
#	211146
#	230307
#
# Disc length: 3255 seconds
#
# Revision: 1
# Processed by: cddbd v1.5.2PL0 Copyright (c) Steve Scherf et al.
# Submitted via: audiograbber 1.83.01
#
DISCID=e00cb510
DTITLE=Ski King - Sketchbook
DYEAR=2011
DGENRE=
TTITLE0=Ain't no Grave
TTITLE1=Gravedigger
TTITLE2=Breakin' the law
TTITLE3=The Devils right Hand
TTITLE4=Ghostriders in the Sky
TTITLE5=Turn the page
TTITLE6=Staying alive
TTITLE7=Close my eyes forever
TTITLE8=Bad Things
TTITLE9=Bulit my hat around you
TTITLE10=Camouflage - weired war
TTITLE11=Highway to hell
TTITLE12=Dont stop believing
TTITLE13=Thirteen
TTITLE14=I aint no nice guy
TTITLE15=My way
EXTD=
EXTT0=
EXTT1=
EXTT2=
EXTT3=
EXTT4=
EXTT5=
EXTT6=
EXTT7=
EXTT8=
EXTT9=
EXTT10=
EXTT11=
EXTT12=
EXTT13=
EXTT14=
EXTT15=
PLAYORDER=
